<?xml version="1.0" encoding="utf-8"?>
<!-- Generator: Adobe Illustrator 23.0.1, SVG Export Plug-In . SVG Version: 6.00 Build 0)  -->
<svg version="1.1" id="logo" xmlns="http://www.w3.org/2000/svg" xmlns:xlink="http://www.w3.org/1999/xlink" x="0px" y="0px"
	 viewBox="0 0 132.8 38.9" style="enable-background:new 0 0 132.8 38.9;" xml:space="preserve">
<style type="text/css">
	.st0{fill:#FFFFFF;}
	.st1{fill-rule:evenodd;clip-rule:evenodd;fill:#E3001C;}
	.st2{fill:#FFFFFF;filter:url(#Adobe_OpacityMaskFilter);}
	.st3{mask:url(#mask0_1_);}
	.st4{fill:#FFFFFF;filter:url(#Adobe_OpacityMaskFilter_1_);}
	.st5{mask:url(#mask1_1_);}
	.st6{fill-rule:evenodd;clip-rule:evenodd;fill:#848484;}
</style>
<path class="st0" d="M19.2,35.5c8.7,0,15.8-7.1,15.8-15.8S27.9,3.9,19.2,3.9C10.4,3.9,3.4,11,3.4,19.7S10.4,35.5,19.2,35.5z"/>
<path class="st0" d="M131.9,1.9H48.5v16.9h83.4V1.9z"/>
<path class="st1" d="M58.6,11.8h1.1l-0.6-3.4L58.6,11.8z"/>
<path class="st1" d="M85.6,7h-0.6v2.2h0.6c0.8,0,1.2-0.4,1.2-1.1C86.9,7.3,86.5,7,85.6,7z"/>
<defs>
	<filter id="Adobe_OpacityMaskFilter" filterUnits="userSpaceOnUse" x="45.6" y="0.7" width="87.2" height="18.7">
		<feColorMatrix  type="matrix" values="1 0 0 0 0  0 1 0 0 0  0 0 1 0 0  0 0 0 1 0"/>
	</filter>
</defs>
<mask maskUnits="userSpaceOnUse" x="45.6" y="0.7" width="87.2" height="18.7" id="mask0_1_">
	<path class="st2" d="M45.6,0.7h87.2v18.7H45.6V0.7z"/>
</mask>
<g class="st3">
	<path class="st1" d="M126.4,7.4h-2.7v9.2h-5.2V7.4h-2.7V3.6h10.6V7.4z M114.3,8.7c-0.4-0.5-0.8-0.8-1.3-1c-0.5-0.2-1-0.3-1.5-0.3
		c-0.6,0-1.2,0.1-1.6,0.4c-0.4,0.2-0.7,0.6-1,1c-0.2,0.4-0.3,0.9-0.3,1.4c0,0.8,0.3,1.4,0.8,1.9c0.5,0.5,1.2,0.7,2,0.7
		c1,0,2-0.4,2.9-1.2v4.5c-1,0.5-2.2,0.8-3.5,0.8c-1,0-2-0.2-2.9-0.5c-0.9-0.3-1.6-0.8-2.3-1.4c-0.7-0.6-1.2-1.3-1.5-2.2
		c-0.3-0.8-0.5-1.8-0.5-2.8c0-1.5,0.4-2.7,1.1-3.8c0.7-1,1.6-1.8,2.7-2.3c1.1-0.5,2.2-0.8,3.4-0.8c0.6,0,1.2,0.1,1.9,0.2
		c0.6,0.2,1.2,0.4,1.7,0.7V8.7z M102.3,7.4h-3.9v1.1h3.5v3.1h-3.5v1.2h3.9v3.8h-9.1V3.6h9.1V7.4z M90.6,11.2c-0.8,0.9-2.1,1.4-4,1.4
		h-1.6v4h-5.2V3.6h6.7c1,0,1.8,0.1,2.5,0.4c0.7,0.3,1.2,0.6,1.6,1.1c0.4,0.4,0.7,0.9,0.8,1.4c0.2,0.5,0.2,1,0.2,1.5
		C91.8,9.2,91.4,10.3,90.6,11.2z M77.6,14.8c-0.5,0.7-1.2,1.2-2,1.6c-0.9,0.4-1.9,0.6-3,0.6c-0.8,0-1.7-0.1-2.5-0.4
		c-0.9-0.3-1.8-0.8-2.9-1.6l2-2.9c0.6,0.5,1.2,0.9,1.7,1.1c0.5,0.2,1,0.4,1.6,0.4c0.7,0,1.1-0.2,1.1-0.7c0-0.3-0.1-0.6-0.4-0.7
		c-0.3-0.1-0.7-0.3-1.3-0.5c-0.5-0.2-1-0.3-1.3-0.4c-0.3-0.1-0.7-0.3-1.1-0.6c-0.4-0.3-0.7-0.6-1-1.1c-0.3-0.5-0.4-1-0.4-1.7
		c0-0.8,0.2-1.5,0.6-2.2c0.4-0.7,1-1.2,1.8-1.7c0.8-0.4,1.8-0.6,3-0.6c0.8,0,1.5,0.1,2.2,0.2C76,3.6,76.5,3.8,76.9,4
		c0.4,0.2,0.7,0.4,1,0.5l-1.5,2.8c-0.5-0.3-0.9-0.5-1.3-0.6c-0.3-0.1-0.7-0.2-1.1-0.2c-0.3,0-0.6,0.1-0.9,0.2
		c-0.2,0.1-0.3,0.3-0.3,0.6c0,0.3,0.1,0.4,0.3,0.6c0.2,0.1,0.6,0.3,1.1,0.4c0.5,0.1,0.9,0.2,1,0.3c1,0.3,1.7,0.7,2.3,1.3
		c0.6,0.6,0.8,1.4,0.8,2.4C78.3,13.2,78.1,14.1,77.6,14.8z M61.1,16.5l-0.5-1.9h-3.2l-0.5,1.9h-5.3l4.6-12.9h5.7l4.6,12.9H61.1z
		 M45.6,19.5h87.2V0.7H45.6V19.5z"/>
</g>
<defs>
	<filter id="Adobe_OpacityMaskFilter_1_" filterUnits="userSpaceOnUse" x="0" y="0" width="39" height="38.9">
		<feColorMatrix  type="matrix" values="1 0 0 0 0  0 1 0 0 0  0 0 1 0 0  0 0 0 1 0"/>
	</filter>
</defs>
<mask maskUnits="userSpaceOnUse" x="0" y="0" width="39" height="38.9" id="mask1_1_">
	<path class="st4" d="M0,0h39v38.9H0V0z"/>
</mask>
<g class="st5">
	<path class="st1" d="M30.5,25L29,21.5h-6.2L21.2,25h-2.4L26,9.6L32.9,25H30.5z M20.3,31h-6.5V16.4H16v12.5h4.3V31z M8.8,25h2.2
		V10.5H8.8V25z M19.5,0C8.7,0,0,8.7,0,19.4c0,10.7,8.7,19.5,19.5,19.5S39,30.2,39,19.4C39,8.7,30.2,0,19.5,0z"/>
	<path class="st1" d="M23.7,19.4h4.4L26,14.5L23.7,19.4z"/>
</g>
<path class="st6" d="M108.8,25.8c0-1.8-1.3-3.1-3.1-3.1c-1.8,0-3.1,1.3-3.1,3.1c0,1.8,1.3,3.1,3.1,3.1
	C107.5,28.9,108.8,27.6,108.8,25.8z M110,25.8c0,2.4-1.8,4.3-4.3,4.3s-4.3-1.9-4.3-4.3s1.8-4.3,4.3-4.3S110,23.3,110,25.8z"/>
<path class="st6" d="M130.4,21.6v7.1h2.4v1.2h-3.7v-8.3H130.4z"/>
<path class="st6" d="M112.9,24.1l5.5,5.8h0.5v-8.3h-1.3v5.8l-5.5-5.8h-0.5v8.3h1.3V24.1z"/>
<path class="st6" d="M122.8,26.7l1.3-2.8l1.2,2.8H122.8z M123.9,21.6l-3.9,8.3h1.4l0.9-2h3.6l0.9,2h1.4l-3.7-8.3H123.9z"/>
<path class="st6" d="M45.6,29.9h1.3v-8.3h-1.3V29.9z"/>
<path class="st6" d="M60.4,22.8v7.1h-1.3v-7.1h-1.9v-1.2h5.1v1.2H60.4z"/>
<path class="st6" d="M67.9,22.8h-3.3v2h3.2V26h-3.2v2.7h3.3v1.2h-4.6v-8.3h4.6V22.8z"/>
<path class="st6" d="M70.9,25.4h0.4c0.3,0,1.8,0,1.8-1.4c0-1.2-1.1-1.3-1.7-1.3h-0.4V25.4z M71.1,21.6c1,0,1.7,0.1,2.2,0.5
	c0.9,0.6,1,1.6,1,2c0,1.2-0.7,2.1-1.8,2.3l2.6,3.6h-1.5l-2.4-3.4h-0.2v3.4h-1.3v-8.3H71.1z"/>
<path class="st6" d="M95.5,22.8v7.1h-1.3v-7.1h-1.9v-1.2h5.1v1.2H95.5z"/>
<path class="st6" d="M98.5,29.9h1.3v-8.3h-1.3V29.9z"/>
<path class="st6" d="M50,24.1l5.6,5.8h0.5v-8.3h-1.3v5.8l-5.5-5.8h-0.5v8.3H50V24.1z"/>
<path class="st6" d="M87.4,26.7l1.3-2.8l1.2,2.8H87.4z M88.5,21.6l-3.9,8.3H86l0.9-2h3.6l0.9,2h1.4L89,21.6H88.5z"/>
<path class="st6" d="M77.5,24.1l5.6,5.8h0.5v-8.3h-1.3v5.8l-5.5-5.8h-0.5v8.3h1.3V24.1z"/>
<path class="st6" d="M48.9,33.1h-2.4v1.4h2.3v0.9h-2.3v2h2.4v0.9h-3.3v-6h3.3V33.1z"/>
<path class="st6" d="M51.1,37.3h0.4c0.4,0,1.1,0,1.6-0.4c0.4-0.3,0.8-0.9,0.8-1.7c0-0.8-0.4-1.4-0.8-1.7c-0.5-0.4-1.2-0.4-1.6-0.4
	h-0.4V37.3z M51.4,32.2c0.8,0,1.6,0.1,2.2,0.6c0.7,0.5,1.1,1.4,1.1,2.4c0,1-0.4,1.8-1.2,2.4c-0.7,0.5-1.4,0.6-2.2,0.6h-1.2v-6H51.4z
	"/>
<path class="st6" d="M56.8,32.2v3.6c0,0.3,0,0.7,0.2,1c0.2,0.3,0.6,0.6,1.1,0.6c0.5,0,0.9-0.3,1.1-0.6c0.2-0.3,0.2-0.7,0.2-1v-3.6
	h0.9v3.8c0,0.5-0.1,1-0.6,1.5c-0.3,0.3-0.8,0.7-1.7,0.7c-0.8,0-1.3-0.4-1.7-0.7c-0.5-0.5-0.6-1.1-0.6-1.5v-3.8H56.8z"/>
<path class="st6" d="M74.7,33.1v5.1h-0.9v-5.1h-1.4v-0.9h3.6v0.9H74.7z"/>
<path class="st6" d="M76.9,38.2h0.9v-6h-0.9V38.2z"/>
<path class="st6" d="M99.8,32.2v5.1h1.8v0.9h-2.7v-6H99.8z"/>
<path class="st6" d="M68.8,35.9l0.9-2l0.9,2H68.8z M69.6,32.2l-2.8,6h1l0.7-1.4H71l0.6,1.4h1l-2.7-6H69.6z"/>
<path class="st6" d="M84.1,35.2c0-1.3-0.9-2.3-2.2-2.3c-1.3,0-2.2,0.9-2.2,2.3c0,1.3,0.9,2.3,2.2,2.3C83.2,37.5,84.1,36.5,84.1,35.2
	z M85.1,35.2c0,1.8-1.3,3.1-3.1,3.1c-1.8,0-3.1-1.3-3.1-3.1c0-1.8,1.3-3.1,3.1-3.1C83.7,32.1,85.1,33.5,85.1,35.2z"/>
<path class="st6" d="M66.2,33.6C65.5,33,64.9,33,64.6,33c-1.3,0-2.2,1-2.2,2.3c0,1.3,0.9,2.2,2.2,2.2c0.7,0,1.3-0.4,1.6-0.7v1.1
	c-0.6,0.4-1.2,0.4-1.6,0.4c-1.1,0-1.8-0.5-2.1-0.8c-0.7-0.7-1-1.4-1-2.3c0-1.1,0.5-1.9,1-2.3c0.6-0.6,1.3-0.8,2.2-0.8
	c0.5,0,1.1,0.1,1.6,0.4V33.6z"/>
<path class="st6" d="M94.3,35.9l0.9-2l0.9,2H94.3z M95,32.2l-2.8,6h1l0.7-1.4h2.6l0.6,1.4h1l-2.7-6H95z"/>
<path class="st6" d="M87.1,34l4,4.2h0.4v-6h-0.9v4.1l-3.9-4.1h-0.4v6h0.9V34z"/>
<path class="st6" d="M113.1,33.1h-2.4v1.4h2.3v0.9h-2.3v2h2.4v0.9h-3.3v-6h3.3V33.1z"/>
<path class="st6" d="M122.6,33.1v5.1h-0.9v-5.1h-1.4v-0.9h3.6v0.9H122.6z"/>
<path class="st6" d="M125.7,35h0.3c0.2,0,1.3,0,1.3-1c0-0.8-0.8-0.9-1.2-0.9h-0.3V35z M125.9,32.2c0.7,0,1.2,0.1,1.6,0.3
	c0.7,0.4,0.7,1.1,0.7,1.4c0,0.9-0.5,1.5-1.3,1.7l1.9,2.5h-1.1l-1.7-2.4h-0.2v2.4h-0.9v-6H125.9z"/>
<path class="st6" d="M132.5,33.1h-2.4v1.4h2.3v0.9h-2.3v2h2.4v0.9h-3.3v-6h3.3V33.1z"/>
<path class="st6" d="M108.5,33.6c-0.7-0.6-1.3-0.7-1.6-0.7c-1.3,0-2.2,1-2.2,2.3c0,1.3,0.9,2.2,2.2,2.2c0.7,0,1.3-0.4,1.6-0.7v1.1
	c-0.6,0.4-1.2,0.4-1.6,0.4c-1.1,0-1.8-0.5-2.1-0.8c-0.7-0.7-1-1.4-1-2.3c0-1.1,0.5-1.9,1-2.3c0.6-0.6,1.3-0.8,2.2-0.8
	c0.5,0,1.1,0.1,1.6,0.4V33.6z"/>
<path class="st6" d="M115.2,34l4,4.2h0.4v-6h-0.9v4.1l-3.9-4.1h-0.4v6h0.9V34z"/>
</svg>
