<?xml version="1.0" encoding="utf-8"?>
<!-- Generator: Adobe Illustrator 23.0.5, SVG Export Plug-In . SVG Version: 6.00 Build 0)  -->
<svg version="1.1" id="logo" xmlns="http://www.w3.org/2000/svg" xmlns:xlink="http://www.w3.org/1999/xlink" x="0px" y="0px"
	 viewBox="0 0 39 38.9" style="enable-background:new 0 0 39 38.9;" xml:space="preserve">
<style type="text/css">
	.st0{fill:#FFFFFF;}
	.st1{fill-rule:evenodd;clip-rule:evenodd;fill:#E3001C;}
</style>
<path class="st0" d="M19.2,35.5c8.7,0,15.8-7.1,15.8-15.8S27.9,3.9,19.2,3.9C10.4,3.9,3.4,11,3.4,19.7S10.4,35.5,19.2,35.5z"/>
<g>
	<path class="st1" d="M30.5,25L29,21.5h-6.2L21.2,25h-2.4L26,9.6L32.9,25H30.5z M20.3,31h-6.5V16.4H16v12.5h4.3V31z M8.8,25H11V10.5
		H8.8V25z M19.5,0C8.7,0,0,8.7,0,19.4s8.7,19.5,19.5,19.5S39,30.2,39,19.4C39,8.7,30.2,0,19.5,0z"/>
	<path class="st1" d="M23.7,19.4h4.4L26,14.5L23.7,19.4z"/>
</g>
</svg>
